<svg width="26" height="26" viewBox="0 0 26 26" fill="none" xmlns="http://www.w3.org/2000/svg">
<path d="M24.9808 10.6C24.9364 9.0268 24.7876 8.0236 24.2836 7.168C23.566 5.95 22.2748 5.272 19.6936 3.9184L17.2936 2.6584C15.1864 1.5532 14.1328 1 13 1C11.8672 1 10.8136 1.552 8.7064 2.6584L6.3064 3.9184C3.7252 5.272 2.434 5.95 1.7164 7.168C1 8.3848 1 9.9004 1 12.9304V13.0708C1 16.0996 1 17.6152 1.7164 18.832C2.434 20.05 3.7252 20.728 6.3064 22.0828L8.7064 23.3416C10.8136 24.4468 11.8672 25 13 25C14.1328 25 15.1864 24.448 17.2936 23.3416L19.6936 22.0816C22.2748 20.7268 23.566 20.05 24.2836 18.832C24.7876 17.9764 24.9364 16.9732 24.9808 15.4M23.8 7.6L19 10M19 10L18.4 10.3L13 13M19 10V14.2M19 10L7.6 4M13 13L2.2 7.6M13 13V24.4" stroke="#CD181F" stroke-width="2" stroke-linecap="round"/>
</svg>
